<svg height="512" viewBox="0 0 64 64" width="512" xmlns="http://www.w3.org/2000/svg"><g id="workhome-virus-covid19-coronavirus-home"><path d="m10 19.77v41.23h40v-41.23l-20-10.77z" fill="#57a4ff"/><path d="m20 52h-10v9h40v-39a30 30 0 0 1 -30 30z" fill="#2488ff"/><path d="m55 48h-1.683a6.988 6.988 0 0 1 -12.634 0h-1.683a6 6 0 0 0 -6 6v7h28v-7a6 6 0 0 0 -6-6z" fill="#006df0"/><path d="m55 48h-1a6 6 0 0 1 6 6v7h1v-7a6 6 0 0 0 -6-6z" fill="#005ece"/><path d="m51 24h-4a2 2 0 0 0 -2 2v1a2 2 0 0 0 -2-2h-2a2 2 0 0 0 -2 2v8h16v-7a4 4 0 0 0 -4-4z" fill="#58595b"/><path d="m47 58v-1h-12.889l.889 4h9a3 3 0 0 0 3-3z" fill="#58595b"/><path d="m6.88 21.45 23.12-12.45 23.12 12.45a2.506 2.506 0 0 0 2.75-4.19l-25.87-14.26-25.87 14.26a2.506 2.506 0 0 0 2.75 4.19z" fill="#d80027"/><path d="m31.348 44.566a2 2 0 0 0 -1.948-1.566h-21.907a2 2 0 0 0 -1.952 2.434l3.111 14a2 2 0 0 0 1.948 1.566h24.4z" fill="#a7a9ac"/><path d="m31.638 45.869a13.49 13.49 0 0 1 -13.467 14.131h-9.293a2 2 0 0 0 1.722 1h24.4z" fill="#939598"/><path d="m32 21h-16a2 2 0 0 0 -2 2v10a2 2 0 0 0 2 2h6l4.97 4 .03-4h5a2 2 0 0 0 2-2v-10a2 2 0 0 0 -2-2z" fill="#ffcd00"/><path d="m47 52a6.992 6.992 0 0 0 6.317-4h-1.317a2 2 0 0 1 -2-2v-1.809a5.967 5.967 0 0 1 -6 0v1.809a2 2 0 0 1 -2 2h-1.317a6.992 6.992 0 0 0 6.317 4z" fill="#ffac96"/><path d="m50 45.191v-1a5.967 5.967 0 0 1 -6 0v1a5.967 5.967 0 0 0 6 0z" fill="#ff9478"/><circle cx="20" cy="52" fill="#f1f2f2" r="2"/><path d="m43 25h-2a2 2 0 0 0 -2 2v8h6v-8a2 2 0 0 0 -2-2z" fill="#6d6e71"/><path d="m40 33a2.006 2.006 0 0 0 -2 2v1a2.006 2.006 0 0 0 2 2h1v-5z" fill="#ffac96"/><path d="m54 38a2.006 2.006 0 0 0 2-2v-1a2.006 2.006 0 0 0 -2-2h-1v5z" fill="#ffac96"/><path d="m52 31h-4.1a3.99 3.99 0 0 1 -1.854-.456l-1.038-.544-1.11.565a4 4 0 0 1 -1.814.435h-.084a1 1 0 0 0 -1 1v7a6 6 0 0 0 12 0v-7a1 1 0 0 0 -1-1z" fill="#ffbcab"/><g fill="#231f20"><path d="m49 37a1 1 0 0 0 1-1v-1a1 1 0 0 0 -2 0v1a1 1 0 0 0 1 1z"/><path d="m45 37a1 1 0 0 0 1-1v-1a1 1 0 0 0 -2 0v1a1 1 0 0 0 1 1z"/><path d="m48.293 39.293a1.831 1.831 0 0 1 -2.586 0 1 1 0 0 0 -1.414 1.414 3.831 3.831 0 0 0 5.414 0 1 1 0 0 0 -1.414-1.414z"/><path d="m55 47h-3a1 1 0 0 1 -1-1v-1.26a7.01 7.01 0 0 0 3-5.74 3.009 3.009 0 0 0 3-3v-1a2.986 2.986 0 0 0 -1-2.22v-4.78a5 5 0 0 0 -5-5v-1.56l1.57.84a3.466 3.466 0 0 0 3.58.17 3.511 3.511 0 0 0 .2-6.07l-25.87-14.26a1.02 1.02 0 0 0 -.96 0l-25.94 14.3a3.515 3.515 0 0 0 .27 6.03 3.605 3.605 0 0 0 1.68.42 3.239 3.239 0 0 0 1.82-.54l1.65-.89v20.56h-1.51a3 3 0 0 0 -2.93 3.65l3.12 14a2.976 2.976 0 0 0 2.92 2.35h50.4a1 1 0 0 0 1-1v-7a7.008 7.008 0 0 0 -7-7zm-3.48 1.95a6.008 6.008 0 0 1 -9.04 0 2.99 2.99 0 0 0 2.52-2.95v-.29a7.042 7.042 0 0 0 4 0v.29a2.99 2.99 0 0 0 2.52 2.95zm.48-9.95a5 5 0 0 1 -10 0l.08-7a5.09 5.09 0 0 0 2.27-.54l.65-.34.58.31a5.1 5.1 0 0 0 2.32.57h4.1zm3-4v1a1 1 0 0 1 -1 1v-3a1 1 0 0 1 1 1zm-1-7v4a2.006 2.006 0 0 0 -2-2h-4.1a3.068 3.068 0 0 1 -1.39-.34l-1.04-.55a1 1 0 0 0 -.92 0l-1.11.56a3.029 3.029 0 0 1 -1.44.33 2.006 2.006 0 0 0 -2 2v-4a2.006 2.006 0 0 1 2-2h1a1 1 0 0 1 1 1 1 1 0 0 0 2 0v-1a1 1 0 0 1 1-1h4a3.009 3.009 0 0 1 3 3zm-47.67-7.38a1.5 1.5 0 0 1 -2.33-1.26 1.481 1.481 0 0 1 .61-1.22l25.39-14 25.32 13.96a1.511 1.511 0 0 1 -.11 2.59 1.566 1.566 0 0 1 -1.62-.12l-23.12-12.45a.98.98 0 0 0 -.94 0zm4.27 39.38a.985.985 0 0 1 -.97-.78l-3.11-14a1 1 0 0 1 .19-.85 1.022 1.022 0 0 1 .78-.37h21.91a.985.985 0 0 1 .97.78l3.38 15.22zm22.91-10.3-1.19-5.35a2.976 2.976 0 0 0 -2.92-2.35h-18.4v-21.15a1.043 1.043 0 0 0 -.1-.43l19.1-10.28 19 10.22v2.64h-2a3 3 0 0 0 -2.53 1.39 2.934 2.934 0 0 0 -1.47-.39h-1a4 4 0 0 0 -4 4v4.78a2.986 2.986 0 0 0 -1 2.22v1a3.009 3.009 0 0 0 3 3 7.01 7.01 0 0 0 3 5.74v1.26a1 1 0 0 1 -1 1h-3a7.041 7.041 0 0 0 -5.49 2.7zm6.49-15.7v3a1 1 0 0 1 -1-1v-1a1 1 0 0 1 1-1zm4 26h-8.2l-.44-2h10.64a2.006 2.006 0 0 1 -2 2zm16 0h-4v-5a1 1 0 0 0 -2 0v5h-6.56a3.906 3.906 0 0 0 .56-2v-1a1 1 0 0 0 -1-1h-12.09l-.73-3.29a5.02 5.02 0 0 1 4.82-3.71h1.1a7.951 7.951 0 0 0 13.8 0h1.1a5 5 0 0 1 5 5z"/><path d="m16 36h5.647l4.7 3.779a1 1 0 0 0 .623.221 1 1 0 0 0 1-.992l.022-3.008h4.008a3 3 0 0 0 3-3v-10a3 3 0 0 0 -3-3h-16a3 3 0 0 0 -3 3v10a3 3 0 0 0 3 3zm-1-13a1 1 0 0 1 1-1h16a1 1 0 0 1 1 1v10a1 1 0 0 1 -1 1h-5a1 1 0 0 0 -1 .992l-.015 1.932-3.358-2.7a1 1 0 0 0 -.627-.224h-6a1 1 0 0 1 -1-1z"/><path d="m18 26h1a1 1 0 0 0 0-2h-1a1 1 0 0 0 0 2z"/><path d="m22 26h8a1 1 0 0 0 0-2h-8a1 1 0 0 0 0 2z"/><path d="m22 29h8a1 1 0 0 0 0-2h-8a1 1 0 0 0 0 2z"/><path d="m18 29h1a1 1 0 0 0 0-2h-1a1 1 0 0 0 0 2z"/><path d="m18 32h1a1 1 0 0 0 0-2h-1a1 1 0 0 0 0 2z"/><path d="m22 32h8a1 1 0 0 0 0-2h-8a1 1 0 0 0 0 2z"/><path d="m20 55a3 3 0 1 1 3-3 3 3 0 0 1 -3 3zm0-4a1 1 0 1 0 1 1 1 1 0 0 0 -1-1z"/></g></g></svg>